<svg class="diagram-root" style="background: #f5f6f6" xmlns="http://www.w3.org/2000/svg" xmlns:xlink="http://www.w3.org/1999/xlink"><style>.diagram-root { font-family: "Helvetica Neue", sans-serif; font-size: 12px; } .t { overflow: visible; } .t-bg { y: 40; fill: #fff;   } .th { fill: #005aa0;   } .tht { fill: #fff; font-size: 14px;  } .tf { fill: #323c46; overflow: visible; } .tf.pk { fill: #005aa0; font-weight: bold; } .tf.fk { font-weight: bold; } .ty { fill: #adb1b5; font-weight: normal; text-anchor: end; } .r { fill: transparent; stroke: #c3c3c3; stroke-width: 1; } .l { stroke: 1; } .i { fill: #c2c7ce; stroke: #c2c7ce; } .i.ix { fill: #afb3b6; stroke: #000; } .fa { fill: transparent; overflow: visible; } .fa .bg.hover { fill: #f7f7f7; } .c { cy: 12; r: 4; stroke: #d2d2dc; fill: #d2d2dc; } .hr { fill: transparent; stroke: #323c46; stroke-opacity: 0.035; stroke-width: 13; } .dc { stroke: #fa5a3c; fill: #fa5a3c; } .x { stroke: white; stroke-width: 1; } .hl .th { fill: #1b9bff; } .hl .tht {  } .fhl .bg { fill: #e7f4ff; } .fhls .bg {  } .r.hl { stroke: #1b9bff; } .dim { opacity: 0.25; }</style><g class="drawing-wrapper" transform="translate(-345.142857142857, 157.14285714285728) scale(1,1)"><g class="rs"><path d="M 620.71 -70.14 m -1, 0 a 1,1 0 1,0 2,0 a 1,1 0 1,0 -2,0 M 620.71 -70.14 m -0.5, 0 a 0.5,0.5 0 1,0 1,0 a 0.5,0.5 0 1,0 -1,0  M620.71 -70.14 L620.71 -70.14 608.71 -70.14 M 620.71 -64.14 m -1, 0 a 1,1 0 1,0 2,0 a 1,1 0 1,0 -2,0 M 620.71 -64.14 m -0.5, 0 a 0.5,0.5 0 1,0 1,0 a 0.5,0.5 0 1,0 -1,0  M620.71 -64.14 L620.71 -64.14 613.71 -70.14 620.71 -76.14 M 620.71 -76.14 m -1, 0 a 1,1 0 1,0 2,0 a 1,1 0 1,0 -2,0 M 620.71 -76.14 m -0.5, 0 a 0.5,0.5 0 1,0 1,0 a 0.5,0.5 0 1,0 -1,0  M608.71 -70.14 Q 586 -70.14, 563.29 -1.57 T 517.86 67 M 505.86 67 m -1, 0 a 1,1 0 1,0 2,0 a 1,1 0 1,0 -2,0 M 505.86 67 m -0.5, 0 a 0.5,0.5 0 1,0 1,0 a 0.5,0.5 0 1,0 -1,0  M505.86 67 L505.86 67 517.86 67 M511.86 73 L511.86 73 511.86 61" id="h1397587031" class="r"></path><path d="M 759.43 -45.14 m -1, 0 a 1,1 0 1,0 2,0 a 1,1 0 1,0 -2,0 M 759.43 -45.14 m -0.5, 0 a 0.5,0.5 0 1,0 1,0 a 0.5,0.5 0 1,0 -1,0  M759.43 -45.14 L759.43 -45.14 771.43 -45.14 M765.43 -39.14 L765.43 -39.14 765.43 -51.14 M771.43 -45.14 Q 791.11 -45.14, 810.79 4.5 T 850.14 54.14 M 862.14 54.14 m -1, 0 a 1,1 0 1,0 2,0 a 1,1 0 1,0 -2,0 M 862.14 54.14 m -0.5, 0 a 0.5,0.5 0 1,0 1,0 a 0.5,0.5 0 1,0 -1,0  M862.14 54.14 L862.14 54.14 850.14 54.14 M856.14 60.14 L856.14 60.14 856.14 48.14" id="h2286254435" class="r"></path><path d="M 761.58 197 m -1, 0 a 1,1 0 1,0 2,0 a 1,1 0 1,0 -2,0 M 761.58 197 m -0.5, 0 a 0.5,0.5 0 1,0 1,0 a 0.5,0.5 0 1,0 -1,0  M761.58 197 L761.58 197 773.58 197 M 761.58 203 m -1, 0 a 1,1 0 1,0 2,0 a 1,1 0 1,0 -2,0 M 761.58 203 m -0.5, 0 a 0.5,0.5 0 1,0 1,0 a 0.5,0.5 0 1,0 -1,0  M761.58 203 L761.58 203 768.58 197 761.58 191 M 761.58 191 m -1, 0 a 1,1 0 1,0 2,0 a 1,1 0 1,0 -2,0 M 761.58 191 m -0.5, 0 a 0.5,0.5 0 1,0 1,0 a 0.5,0.5 0 1,0 -1,0  M773.58 197 Q 792.72 197, 811.86 125.57 T 850.14 54.14 M 862.14 54.14 m -1, 0 a 1,1 0 1,0 2,0 a 1,1 0 1,0 -2,0 M 862.14 54.14 m -0.5, 0 a 0.5,0.5 0 1,0 1,0 a 0.5,0.5 0 1,0 -1,0  M862.14 54.14 L862.14 54.14 850.14 54.14 M856.14 60.14 L856.14 60.14 856.14 48.14" id="h1139284389" class="r"></path><path d="M 622.86 222 m -1, 0 a 1,1 0 1,0 2,0 a 1,1 0 1,0 -2,0 M 622.86 222 m -0.5, 0 a 0.5,0.5 0 1,0 1,0 a 0.5,0.5 0 1,0 -1,0  M622.86 222 L622.86 222 610.86 222 M 622.86 228 m -1, 0 a 1,1 0 1,0 2,0 a 1,1 0 1,0 -2,0 M 622.86 228 m -0.5, 0 a 0.5,0.5 0 1,0 1,0 a 0.5,0.5 0 1,0 -1,0  M622.86 228 L622.86 228 615.86 222 622.86 216 M 622.86 216 m -1, 0 a 1,1 0 1,0 2,0 a 1,1 0 1,0 -2,0 M 622.86 216 m -0.5, 0 a 0.5,0.5 0 1,0 1,0 a 0.5,0.5 0 1,0 -1,0  M610.86 222 Q 587.61 222, 564.36 144.5 T 517.86 67 M 505.86 67 m -1, 0 a 1,1 0 1,0 2,0 a 1,1 0 1,0 -2,0 M 505.86 67 m -0.5, 0 a 0.5,0.5 0 1,0 1,0 a 0.5,0.5 0 1,0 -1,0  M505.86 67 L505.86 67 517.86 67 M511.86 73 L511.86 73 511.86 61" id="h1607168654" class="r"></path><path d="M 1090 -35.86 m -1, 0 a 1,1 0 1,0 2,0 a 1,1 0 1,0 -2,0 M 1090 -35.86 m -0.5, 0 a 0.5,0.5 0 1,0 1,0 a 0.5,0.5 0 1,0 -1,0  M1090 -35.86 L1090 -35.86 1078 -35.86 M1084 -29.86 L1084 -29.86 1084 -41.86 M1078 -35.86 Q 1062.05 -35.86, 1046.1 9.14 T 1014.19 54.14 M 1002.19 54.14 m -1, 0 a 1,1 0 1,0 2,0 a 1,1 0 1,0 -2,0 M 1002.19 54.14 m -0.5, 0 a 0.5,0.5 0 1,0 1,0 a 0.5,0.5 0 1,0 -1,0  M1002.19 54.14 L1002.19 54.14 1014.19 54.14 M1008.19 60.14 L1008.19 60.14 1008.19 48.14" id="h3177548053" class="r"></path><path d="M 1002.19 79.14 m -1, 0 a 1,1 0 1,0 2,0 a 1,1 0 1,0 -2,0 M 1002.19 79.14 m -0.5, 0 a 0.5,0.5 0 1,0 1,0 a 0.5,0.5 0 1,0 -1,0  M1002.19 79.14 L1002.19 79.14 1014.19 79.14 M1008.19 85.14 L1008.19 85.14 1008.19 73.14 M1014.19 79.14 Q 1029.97 79.14, 1045.74 138.79 T 1077.29 198.43 M 1089.29 198.43 m -1, 0 a 1,1 0 1,0 2,0 a 1,1 0 1,0 -2,0 M 1089.29 198.43 m -0.5, 0 a 0.5,0.5 0 1,0 1,0 a 0.5,0.5 0 1,0 -1,0  M1089.29 198.43 L1089.29 198.43 1077.29 198.43 M1083.29 204.43 L1083.29 204.43 1083.29 192.43" id="h1537058300" class="r"></path></g><g class="hrs"></g><g class="ts"><svg width="138.72" height="100" x="367.14" y="10" id="h475896179" class="t"><rect height="40" width="138.72" class="th"></rect><text x="13" y="25" class="tht">departments</text><rect height="60" width="138.72" class="t-bg"></rect><text x="13" y="61" class="tf pk">dept_no<tspan x="125.72" class="ty">string</tspan></text><path d="M7,14A2,2 0 0,1 5,12A2,2 0 0,1 7,10A2,2 0 0,1 9,12A2,2 0 0,1 7,14M12.65,10C11.83,7.67 9.61,6 7, 6A6, 6 0 0, 0 1, 12A6, 6 0 0, 0 7, 18C9.61, 18 11.83, 16.33 12.65, 14H17V18H21V14H23V10H12.65Z" class="i pk" transform="translate(76.37625, 48) scale(0.65)"></path><text x="13" y="86" class="tf">dept_name<tspan x="125.72" class="ty">string</tspan></text></svg><svg width="138.72" height="100" x="620.71" y="-127.14" id="h1676682957" class="t"><rect height="40" width="138.72" class="th"></rect><text x="13" y="25" class="tht">dept_manager</text><rect height="60" width="138.72" class="t-bg"></rect><text x="13" y="61" class="tf pk">dept_no<tspan x="125.72" class="ty">string</tspan></text><path d="M7,14A2,2 0 0,1 5,12A2,2 0 0,1 7,10A2,2 0 0,1 9,12A2,2 0 0,1 7,14M12.65,10C11.83,7.67 9.61,6 7, 6A6, 6 0 0, 0 1, 12A6, 6 0 0, 0 7, 18C9.61, 18 11.83, 16.33 12.65, 14H17V18H21V14H23V10H12.65Z" class="i pk" transform="translate(76.37625, 48) scale(0.65)"></path><text x="13" y="86" class="tf pk">emp_no<tspan x="125.72" class="ty">int</tspan></text><path d="M7,14A2,2 0 0,1 5,12A2,2 0 0,1 7,10A2,2 0 0,1 9,12A2,2 0 0,1 7,14M12.65,10C11.83,7.67 9.61,6 7, 6A6, 6 0 0, 0 1, 12A6, 6 0 0, 0 7, 18C9.61, 18 11.83, 16.33 12.65, 14H17V18H21V14H23V10H12.65Z" class="i pk" transform="translate(93.046171875, 73) scale(0.65)"></path></svg><svg width="138.72" height="100" x="622.86" y="140" id="h1090417462" class="t"><rect height="40" width="138.72" class="th"></rect><text x="13" y="25" class="tht">dept_emp</text><rect height="60" width="138.72" class="t-bg"></rect><text x="13" y="61" class="tf pk">emp_no<tspan x="125.72" class="ty">int</tspan></text><path d="M7,14A2,2 0 0,1 5,12A2,2 0 0,1 7,10A2,2 0 0,1 9,12A2,2 0 0,1 7,14M12.65,10C11.83,7.67 9.61,6 7, 6A6, 6 0 0, 0 1, 12A6, 6 0 0, 0 7, 18C9.61, 18 11.83, 16.33 12.65, 14H17V18H21V14H23V10H12.65Z" class="i pk" transform="translate(93.046171875, 48) scale(0.65)"></path><text x="13" y="86" class="tf pk">dept_no<tspan x="125.72" class="ty">string</tspan></text><path d="M7,14A2,2 0 0,1 5,12A2,2 0 0,1 7,10A2,2 0 0,1 9,12A2,2 0 0,1 7,14M12.65,10C11.83,7.67 9.61,6 7, 6A6, 6 0 0, 0 1, 12A6, 6 0 0, 0 7, 18C9.61, 18 11.83, 16.33 12.65, 14H17V18H21V14H23V10H12.65Z" class="i pk" transform="translate(76.37625, 73) scale(0.65)"></path></svg><svg width="130.03" height="100" x="1089.29" y="141.43" id="h311790747" class="t"><rect height="40" width="130.03" class="th"></rect><text x="13" y="25" class="tht">titles</text><rect height="60" width="130.03" class="t-bg"></rect><text x="13" y="61" class="tf pk">title_id<tspan x="117.03" class="ty">string</tspan></text><path d="M7,14A2,2 0 0,1 5,12A2,2 0 0,1 7,10A2,2 0 0,1 9,12A2,2 0 0,1 7,14M12.65,10C11.83,7.67 9.61,6 7, 6A6, 6 0 0, 0 1, 12A6, 6 0 0, 0 7, 18C9.61, 18 11.83, 16.33 12.65, 14H17V18H21V14H23V10H12.65Z" class="i pk" transform="translate(67.68625, 48) scale(0.65)"></path><text x="13" y="86" class="tf">title<tspan x="117.03" class="ty">string</tspan></text></svg><svg width="122.04" height="100" x="1090" y="-92.86" id="h2472833127" class="t"><rect height="40" width="122.04" class="th"></rect><text x="13" y="25" class="tht">salaries</text><rect height="60" width="122.04" class="t-bg"></rect><text x="13" y="61" class="tf pk">emp_no<tspan x="109.04" class="ty">int</tspan></text><path d="M7,14A2,2 0 0,1 5,12A2,2 0 0,1 7,10A2,2 0 0,1 9,12A2,2 0 0,1 7,14M12.65,10C11.83,7.67 9.61,6 7, 6A6, 6 0 0, 0 1, 12A6, 6 0 0, 0 7, 18C9.61, 18 11.83, 16.33 12.65, 14H17V18H21V14H23V10H12.65Z" class="i pk" transform="translate(76.366171875, 48) scale(0.65)"></path><text x="13" y="86" class="tf pk">salary<tspan x="109.04" class="ty">int</tspan></text><path d="M7,14A2,2 0 0,1 5,12A2,2 0 0,1 7,10A2,2 0 0,1 9,12A2,2 0 0,1 7,14M12.65,10C11.83,7.67 9.61,6 7, 6A6, 6 0 0, 0 1, 12A6, 6 0 0, 0 7, 18C9.61, 18 11.83, 16.33 12.65, 14H17V18H21V14H23V10H12.65Z" class="i pk" transform="translate(76.366171875, 73) scale(0.65)"></path></svg><svg width="140.05" height="225" x="862.14" y="-2.86" id="h1639608377" class="t"><rect height="40" width="140.05" class="th"></rect><text x="13" y="25" class="tht">employees</text><rect height="185" width="140.05" class="t-bg"></rect><text x="13" y="61" class="tf pk">emp_no<tspan x="127.05000000000001" class="ty">int</tspan></text><path d="M7,14A2,2 0 0,1 5,12A2,2 0 0,1 7,10A2,2 0 0,1 9,12A2,2 0 0,1 7,14M12.65,10C11.83,7.67 9.61,6 7, 6A6, 6 0 0, 0 1, 12A6, 6 0 0, 0 7, 18C9.61, 18 11.83, 16.33 12.65, 14H17V18H21V14H23V10H12.65Z" class="i pk" transform="translate(94.37617187500001, 48) scale(0.65)"></path><text x="13" y="86" class="tf fk">emp_title_id<tspan x="127.05000000000001" class="ty">string</tspan></text><text x="13" y="111" class="tf">birth_date<tspan x="127.05000000000001" class="ty">date</tspan></text><text x="13" y="136" class="tf">first_name<tspan x="127.05000000000001" class="ty">string</tspan></text><text x="13" y="161" class="tf">last_name<tspan x="127.05000000000001" class="ty">string</tspan></text><text x="13" y="186" class="tf">sex<tspan x="127.05000000000001" class="ty">string</tspan></text><text x="13" y="211" class="tf">hire_date<tspan x="127.05000000000001" class="ty">date</tspan></text></svg></g></g><text class="qdbd-link" x="10" y="20">www.quickdatabasediagrams.com</text></svg>